<?xml version="1.0" encoding="utf-8"?>
<!-- Generator: Adobe Illustrator 22.0.0, SVG Export Plug-In . SVG Version: 6.00 Build 0)  -->
<svg version="1.1" id="Capa_1" xmlns="http://www.w3.org/2000/svg" xmlns:xlink="http://www.w3.org/1999/xlink" x="0px" y="0px"
	 viewBox="0 0 100 14.6" style="enable-background:new 0 0 100 14.6;" xml:space="preserve">
<g>
	<polygon points="-0.1,-0.3 -0.1,14.6 6.1,14.6 6.1,12.4 2.3,12.4 2.3,-0.3 	"/>
	<polygon points="7.1,-0.3 7.1,14.6 13.5,14.6 13.5,12.4 9.4,12.4 9.4,8.1 12.6,8.1 12.6,6 9.4,6 9.4,1.8 13.5,1.8 13.5,-0.3 	"/>
	<polygon points="20.2,-0.3 20.2,8.6 17.8,-0.3 14.9,-0.3 14.9,14.6 17,14.6 17,3.8 19.9,14.6 22.3,14.6 22.3,-0.3 	"/>
	<polygon points="23.8,-0.3 23.8,1.8 28,1.8 23.6,12.5 23.6,14.6 30.4,14.6 30.4,12.4 26,12.4 30.4,1.8 30.4,-0.3 	"/>
	<path d="M74.3,9.5l0.4-0.6c0.6,0.4,1.3,0.7,1.9,0.7c0.7,0,1.1-0.3,1.1-0.9v0c0-0.6-0.7-0.8-1.4-1c-0.9-0.2-1.8-0.5-1.8-1.6v0
		c0-1,0.8-1.6,1.9-1.6c0.7,0,1.4,0.2,2,0.6l-0.4,0.6c-0.5-0.3-1.1-0.5-1.6-0.5c-0.7,0-1.1,0.3-1.1,0.8v0c0,0.5,0.7,0.7,1.4,1
		c0.9,0.3,1.8,0.6,1.8,1.6v0c0,1.1-0.9,1.7-2,1.7C75.8,10.3,74.9,10,74.3,9.5"/>
	<path d="M80.3,8.7V5.4h-0.8V4.7h0.8V3h0.8v1.7h1.8v0.7h-1.8v3.2c0,0.7,0.4,0.9,0.9,0.9c0.3,0,0.5-0.1,0.8-0.2V10
		c-0.3,0.2-0.6,0.2-1,0.2C81,10.3,80.3,9.8,80.3,8.7"/>
	<path d="M88.7,7.4L88.7,7.4c0-1.2-0.9-2.2-2.1-2.2c-1.2,0-2,1-2,2.1v0c0,1.2,0.9,2.2,2,2.2C87.9,9.6,88.7,8.6,88.7,7.4 M83.8,7.4
		L83.8,7.4c0-1.6,1.2-2.9,2.9-2.9c1.7,0,2.9,1.3,2.9,2.9v0c0,1.6-1.2,2.9-2.9,2.9C85,10.3,83.8,9,83.8,7.4"/>
	<path d="M91.1,4.7h0.8v1.4c0.4-0.9,1.2-1.6,2.3-1.5v0.9h-0.1c-1.2,0-2.2,0.9-2.2,2.5v2.2h-0.8V4.7z"/>
	<path d="M99.2,7.1c-0.1-1-0.7-1.9-1.8-1.9c-1,0-1.7,0.8-1.8,1.9H99.2z M97.6,9.6c0.8,0,1.3-0.3,1.7-0.8l0.5,0.5
		c-0.6,0.6-1.2,1-2.3,1c-1.5,0-2.8-1.2-2.8-2.9c0-1.6,1.1-2.9,2.7-2.9c1.6,0,2.6,1.3,2.6,2.9c0,0.1,0,0.2,0,0.3h-4.4
		C95.8,8.9,96.6,9.6,97.6,9.6"/>
	<path d="M47.8,7.4L47.8,7.4c0-1.3-0.9-2.2-1.9-2.2c-1,0-2,0.9-2,2.1v0c0,1.3,1,2.1,2,2.1C46.9,9.6,47.8,8.8,47.8,7.4 M43.1,4.7h0.8
		v1.1C44.4,5.1,45,4.5,46,4.5c1.3,0,2.6,1,2.6,2.9v0c0,1.8-1.3,2.9-2.6,2.9c-1,0-1.7-0.6-2.1-1.2v2.8h-0.8V4.7z"/>
	<path d="M50.2,2.4H51v3.2c0.4-0.6,0.9-1.1,1.9-1.1c1.3,0,2.1,0.9,2.1,2.2v3.4h-0.8V7c0-1-0.6-1.7-1.5-1.7C51.7,5.3,51,6,51,7v3.2
		h-0.8V2.4z"/>
	<path d="M61.4,7.4L61.4,7.4c0-1.2-0.9-2.2-2.1-2.2c-1.2,0-2,1-2,2.1v0c0,1.2,0.9,2.2,2,2.2C60.5,9.6,61.4,8.6,61.4,7.4 M56.4,7.4
		L56.4,7.4c0-1.6,1.2-2.9,2.9-2.9c1.7,0,2.9,1.3,2.9,2.9v0c0,1.6-1.2,2.9-2.9,2.9C57.6,10.3,56.4,9,56.4,7.4"/>
	<path d="M64,8.7V5.4h-0.8V4.7H64V3h0.8v1.7h1.8v0.7h-1.8v3.2c0,0.7,0.4,0.9,0.9,0.9c0.3,0,0.5-0.1,0.8-0.2V10
		c-0.3,0.2-0.6,0.2-1,0.2C64.7,10.3,64,9.8,64,8.7"/>
	<path d="M72.4,7.4L72.4,7.4c0-1.2-0.9-2.2-2.1-2.2c-1.2,0-2,1-2,2.1v0c0,1.2,0.9,2.2,2,2.2C71.6,9.6,72.4,8.6,72.4,7.4 M67.5,7.4
		L67.5,7.4c0-1.6,1.2-2.9,2.9-2.9c1.7,0,2.9,1.3,2.9,2.9v0c0,1.6-1.2,2.9-2.9,2.9C68.7,10.3,67.5,9,67.5,7.4"/>
	<path d="M37,2.2c0,0,0.1,0.6,0.1,1.5c0,0.9,0.1,2.2,0.1,3.4c0,1.2,0,2.5-0.1,3.4c0,0.9-0.1,1.5-0.1,1.5s-0.1-0.6-0.1-1.5
		c0-0.9-0.1-2.2-0.1-3.4c0-1.2,0-2.5,0.1-3.4C36.9,2.8,37,2.2,37,2.2"/>
</g>
</svg>
